<svg width="496" height="349" viewBox="0 0 496 349" fill="none" xmlns="http://www.w3.org/2000/svg">
<path opacity="0.52" d="M5 342.5C5 346.091 114.914 349 250.5 349C386.086 349 496 346.09 496 342.5C496 338.909 386.086 336 250.5 336C114.915 336 5 338.909 5 342.5Z" fill="#086D8A"/>
<path d="M364.091 103.067C351.594 132.012 326.746 154.226 299.111 169.402C271.476 184.578 240.909 193.463 210.626 202.233" stroke="#334620" stroke-width="2.1223" stroke-miterlimit="10"/>
<path d="M364.808 91.298C363.291 93.95 363.068 97.121 362.879 100.17C362.739 102.426 362.6 104.683 362.46 106.939C365.731 104.915 369.064 102.838 371.519 99.877C373.42 97.585 376.377 91.909 374.296 88.938C371.762 85.318 366.409 88.499 364.808 91.298Z" fill="#334620"/>
<path d="M355.374 107.782C354.343 104.081 351.853 100.634 348.283 99.215C345.36 98.053 341.493 98.639 339.877 101.339C338.251 104.055 339.491 107.596 341.29 110.201C343.8 113.836 347.364 116.734 351.435 118.448C354.502 119.74 355.613 119.293 355.922 116.128C356.194 113.345 356.128 110.49 355.374 107.782Z" fill="#334620"/>
<path d="M359.579 126.173C362.914 126.131 366.305 126.828 369.178 128.523C370.701 129.421 372.113 130.661 372.746 132.313C373.379 133.965 373.031 136.074 371.598 137.11C370.924 137.597 370.091 137.808 369.269 137.928C363.546 138.765 358.011 135.69 353.316 132.313C352.408 131.66 351.466 130.952 350.792 130.046C349.826 128.749 349.539 128.134 351.1 127.596C353.772 126.675 356.758 126.209 359.579 126.173Z" fill="#334620"/>
<path d="M274.666 190.473C276.646 193.157 278.059 196.318 278.359 199.64C278.518 201.401 278.336 203.272 277.363 204.748C276.391 206.225 274.475 207.174 272.797 206.615C272.008 206.352 271.351 205.798 270.773 205.201C266.753 201.042 266.021 194.753 266.024 188.969C266.024 187.851 266.05 186.672 266.391 185.597C266.881 184.056 267.213 183.464 268.56 184.417C270.87 186.05 272.991 188.202 274.666 190.473Z" fill="#334620"/>
<path d="M290.245 183.163C292.485 185.634 294.208 188.637 294.84 191.912C295.175 193.649 295.182 195.527 294.362 197.095C293.543 198.663 291.732 199.799 290.007 199.411C289.196 199.229 288.486 198.744 287.851 198.207C283.434 194.472 282.073 188.289 281.495 182.534C281.383 181.421 281.29 180.246 281.522 179.142C281.855 177.56 282.125 176.937 283.561 177.75C286.023 179.143 288.349 181.072 290.245 183.163Z" fill="#334620"/>
<path d="M287.784 165.955C285.489 163.534 283.7 160.571 282.995 157.31C282.621 155.581 282.573 153.703 283.357 152.118C284.141 150.533 285.926 149.356 287.659 149.705C288.474 149.869 289.194 150.338 289.841 150.86C294.341 154.495 295.839 160.646 296.546 166.387C296.683 167.497 296.802 168.67 296.595 169.779C296.298 171.368 296.041 171.997 294.587 171.216C292.094 169.879 289.725 168.003 287.784 165.955Z" fill="#334620"/>
<path d="M305.323 174.495C308.189 176.201 310.718 178.566 312.283 181.511C313.113 183.073 313.67 184.867 313.347 186.606C313.024 188.345 311.626 189.963 309.863 190.098C309.034 190.162 308.213 189.907 307.449 189.58C302.13 187.306 299.016 181.794 296.774 176.461C296.341 175.43 295.907 174.334 295.804 173.21C295.658 171.6 295.734 170.925 297.345 171.281C300.108 171.891 302.898 173.052 305.323 174.495Z" fill="#334620"/>
<path d="M331.09 153.089C334.425 153.047 337.816 153.744 340.689 155.439C342.212 156.337 343.624 157.577 344.257 159.228C344.889 160.88 344.542 162.989 343.109 164.025C342.435 164.512 341.602 164.723 340.78 164.843C335.056 165.68 329.522 162.605 324.826 159.227C323.918 158.574 322.975 157.866 322.301 156.961C321.336 155.664 321.048 155.049 322.609 154.511C325.282 153.591 328.268 153.125 331.09 153.089Z" fill="#334620"/>
<path d="M257.513 197.473C259.562 200.105 261.055 203.229 261.44 206.542C261.644 208.299 261.51 210.173 260.575 211.674C259.641 213.176 257.75 214.174 256.059 213.657C255.264 213.414 254.592 212.878 254 212.295C249.875 208.24 248.982 201.972 248.836 196.19C248.808 195.072 248.803 193.893 249.117 192.809C249.567 191.256 249.884 190.655 251.255 191.574C253.605 193.148 255.78 195.246 257.513 197.473Z" fill="#334620"/>
<path d="M321.791 146.862C321.845 143.527 321.159 140.133 319.474 137.255C318.581 135.729 317.346 134.312 315.697 133.674C314.048 133.036 311.937 133.376 310.896 134.806C310.407 135.478 310.193 136.311 310.07 137.132C309.213 142.853 312.268 148.398 315.63 153.105C316.28 154.015 316.985 154.96 317.888 155.637C319.182 156.607 319.796 156.896 320.339 155.338C321.268 152.668 321.745 149.684 321.791 146.862Z" fill="#334620"/>
<path d="M244.187 183.915C244.241 180.58 243.555 177.186 241.87 174.308C240.977 172.782 239.742 171.365 238.093 170.727C236.444 170.089 234.333 170.429 233.292 171.859C232.803 172.531 232.589 173.363 232.466 174.185C231.609 179.906 234.664 185.451 238.026 190.158C238.676 191.068 239.381 192.013 240.283 192.69C241.577 193.66 242.191 193.95 242.734 192.391C243.665 189.721 244.142 186.737 244.187 183.915Z" fill="#334620"/>
<path d="M326.111 139.251C323.883 136.768 322.175 133.757 321.56 130.479C321.234 128.741 321.237 126.862 322.064 125.299C322.891 123.736 324.707 122.608 326.43 123.005C327.24 123.191 327.947 123.68 328.58 124.219C332.979 127.976 334.308 134.166 334.857 139.924C334.963 141.037 335.051 142.213 334.813 143.316C334.473 144.897 334.198 145.518 332.766 144.698C330.313 143.292 327.996 141.351 326.111 139.251Z" fill="#334620"/>
<path d="M257.273 180.571C255.356 178.435 253.887 175.844 253.357 173.023C253.076 171.527 253.079 169.911 253.79 168.566C254.501 167.221 256.064 166.251 257.547 166.592C258.244 166.752 258.853 167.173 259.397 167.637C263.182 170.87 264.325 176.196 264.798 181.15C264.889 182.108 264.965 183.12 264.76 184.069C264.467 185.429 264.231 185.964 262.999 185.258C260.888 184.048 258.895 182.379 257.273 180.571Z" fill="#334620"/>
<path d="M342.468 117.077C341.262 115.802 339.868 114.634 338.2 114.09C336.531 113.546 334.543 113.73 333.242 114.909C332.442 115.634 331.965 116.673 331.796 117.739C331.443 119.965 332.383 122.248 333.846 123.963C335.308 125.678 337.25 126.909 339.207 128.028C341.572 129.38 347.876 132.235 347.457 127.456C347.113 123.528 345.148 119.912 342.468 117.077Z" fill="#334620"/>
<path d="M279.114 164.637C277.908 163.362 276.514 162.194 274.846 161.65C273.177 161.106 271.189 161.29 269.888 162.469C269.088 163.194 268.611 164.232 268.441 165.299C268.088 167.525 269.028 169.808 270.491 171.523C271.953 173.238 273.895 174.469 275.852 175.588C278.217 176.94 284.521 179.795 284.102 175.016C283.759 171.088 281.794 167.472 279.114 164.637Z" fill="#334620"/>
<path d="M347.43 150.444C349.175 150.629 350.994 150.61 352.615 149.938C354.236 149.266 355.628 147.833 355.85 146.092C355.986 145.021 355.674 143.922 355.108 143.001C353.929 141.08 351.73 139.957 349.504 139.605C347.278 139.253 345.003 139.58 342.788 140.003C340.112 140.514 333.466 142.443 336.892 145.802C339.707 148.563 343.551 150.032 347.43 150.444Z" fill="#334620"/>
<path d="M233.933 208.352C234.439 210.032 235.162 211.701 236.41 212.935C237.658 214.169 239.518 214.896 241.209 214.425C242.249 214.135 243.141 213.421 243.77 212.543C245.083 210.711 245.266 208.249 244.727 206.061C244.188 203.872 243.004 201.902 241.756 200.025C240.247 197.757 235.892 192.379 234.124 196.839C232.672 200.503 232.808 204.616 233.933 208.352Z" fill="#334620"/>
<path d="M228.145 183.793C227.424 182.193 226.49 180.633 225.092 179.572C223.694 178.511 221.755 178.033 220.14 178.72C219.146 179.143 218.355 179.967 217.846 180.92C216.783 182.907 216.923 185.372 217.742 187.472C218.562 189.572 219.992 191.371 221.475 193.07C223.267 195.122 228.286 199.887 229.457 195.234C230.419 191.41 229.747 187.35 228.145 183.793Z" fill="#334620"/>
<path d="M309.045 150.01C308.371 148.389 307.483 146.803 306.116 145.702C304.749 144.601 302.825 144.066 301.19 144.706C300.184 145.1 299.37 145.901 298.833 146.838C297.712 148.794 297.78 151.261 298.538 153.384C299.296 155.507 300.673 157.347 302.106 159.088C303.837 161.192 308.715 166.101 310.021 161.484C311.095 157.691 310.543 153.612 309.045 150.01Z" fill="#334620"/>
<path d="M374.156 111.787C375.731 112.037 377.435 112.662 378.13 114.098C378.928 115.746 377.977 117.824 376.459 118.848C374.941 119.872 373.027 120.08 371.197 120.146C367.064 120.295 362.916 119.871 358.884 118.951C358.287 118.815 357.664 118.653 357.217 118.235C355.174 116.322 362.487 113.661 363.788 113.161C367.077 111.898 370.644 111.23 374.156 111.787Z" fill="#334620"/>
<path d="M322.373 165.263C325.388 166.306 328.299 167.781 330.636 169.953C332.973 172.125 334.703 175.043 335.057 178.214C335.302 180.414 334.745 182.892 332.946 184.181C331.018 185.563 328.348 185.159 326.112 184.366C320.04 182.211 315.026 177.456 312.261 171.669C311.395 169.856 308.909 164.325 310.819 163.303C311.973 162.686 315.282 163.575 316.578 163.791C318.546 164.118 320.487 164.611 322.373 165.263Z" fill="#334620"/>
<path d="M308.074 63.907L308.135 63.822C308.135 63.822 308.142 63.851 308.152 63.897C308.199 63.891 308.229 63.888 308.229 63.888L308.17 63.974C308.986 67.589 324.673 140.646 270.138 185.944C248.455 203.954 222.364 197.434 217.34 193.66C211.643 189.38 197.011 167.952 206.506 141.412C230.387 74.661 304.399 64.379 308.074 63.907Z" fill="#00393D"/>
<path d="M307.1 66.308C276.521 109.891 247.419 149.687 217.769 193.906" stroke="white" stroke-width="1.0526" stroke-miterlimit="10" stroke-linecap="round" stroke-linejoin="round"/>
<path d="M309.347 101.957C297.946 109.924 284.772 115.081 271.359 116.827" stroke="white" stroke-width="1.0526" stroke-miterlimit="10" stroke-linecap="round" stroke-linejoin="round"/>
<path d="M289.179 70.9869C288.006 75.1469 286.956 79.3369 286.031 83.5469C284.709 89.5659 283.831 92.9489 284.22 99.0009" stroke="white" stroke-width="1.0526" stroke-miterlimit="10" stroke-linecap="round" stroke-linejoin="round"/>
<path d="M265.296 82.192C262.476 97.923 261.306 113.863 261.812 129.645" stroke="white" stroke-width="1.0526" stroke-miterlimit="10" stroke-linecap="round" stroke-linejoin="round"/>
<path d="M303.079 130.925C287.792 139.976 269.333 144.802 252.165 144.349" stroke="white" stroke-width="1.0526" stroke-miterlimit="10" stroke-linecap="round" stroke-linejoin="round"/>
<path d="M244.607 92.8989C242.011 113.574 239.443 134.821 244.362 154.587" stroke="white" stroke-width="1.0526" stroke-miterlimit="10" stroke-linecap="round" stroke-linejoin="round"/>
<path d="M292.915 156.837C275.726 165.087 256.364 167.959 238.229 164.948" stroke="white" stroke-width="1.0526" stroke-miterlimit="10" stroke-linecap="round" stroke-linejoin="round"/>
<path d="M222.939 113.346C218.711 136.647 217.421 161.013 224.841 182.743" stroke="white" stroke-width="1.0526" stroke-miterlimit="10" stroke-linecap="round" stroke-linejoin="round"/>
<path d="M265.588 185.399C251.964 190.163 237.01 190.009 224.056 184.973" stroke="white" stroke-width="1.0526" stroke-miterlimit="10" stroke-linecap="round" stroke-linejoin="round"/>
<path d="M37.3381 199.303C51.2411 227.6 77.1501 248.567 105.496 262.368C133.843 276.169 164.809 283.543 195.486 290.816" stroke="#40552A" stroke-width="2.1223" stroke-miterlimit="10"/>
<path d="M36.0452 187.584C37.6902 190.158 38.0692 193.314 38.4072 196.35C38.6572 198.597 38.9072 200.844 39.1572 203.09C35.7902 201.229 32.3602 199.318 29.7622 196.481C27.7512 194.285 24.5192 188.761 26.4512 185.692C28.8052 181.952 34.3082 184.867 36.0452 187.584Z" fill="#334620"/>
<path d="M46.2762 203.585C47.1242 199.838 49.4422 196.273 52.9382 194.68C55.8012 193.376 59.6922 193.772 61.4382 196.389C63.1952 199.022 62.1302 202.62 60.4622 205.31C58.1332 209.064 54.7162 212.133 50.7342 214.046C47.7342 215.487 46.6022 215.095 46.1382 211.949C45.7302 209.182 45.6562 206.326 46.2762 203.585Z" fill="#334620"/>
<path d="M42.979 222.16C39.646 222.282 36.293 223.144 33.507 224.979C32.03 225.951 30.68 227.258 30.13 228.939C29.58 230.62 30.03 232.71 31.512 233.674C32.209 234.127 33.051 234.297 33.879 234.377C39.637 234.932 45.013 231.589 49.538 227.985C50.413 227.288 51.319 226.534 51.948 225.597C52.849 224.254 53.106 223.626 51.52 223.165C48.804 222.376 45.799 222.057 42.979 222.16Z" fill="#334620"/>
<path d="M130.946 282.214C129.1 284.992 127.844 288.218 127.707 291.551C127.635 293.318 127.908 295.177 128.952 296.604C129.996 298.032 131.956 298.886 133.604 298.245C134.379 297.944 135.008 297.358 135.556 296.733C139.367 292.381 139.79 286.064 139.503 280.287C139.448 279.17 139.365 277.994 138.97 276.937C138.405 275.422 138.044 274.846 136.746 275.865C134.521 277.61 132.508 279.864 130.946 282.214Z" fill="#334620"/>
<path d="M115.028 275.677C112.912 278.256 111.338 281.339 110.868 284.641C110.619 286.392 110.704 288.269 111.599 289.794C112.494 291.319 114.358 292.366 116.063 291.894C116.864 291.672 117.549 291.153 118.157 290.586C122.386 286.639 123.441 280.397 123.736 274.62C123.793 273.503 123.828 272.325 123.542 271.233C123.132 269.669 122.831 269.06 121.437 269.943C119.047 271.455 116.818 273.496 115.028 275.677Z" fill="#334620"/>
<path d="M116.641 258.37C118.814 255.839 120.456 252.792 121 249.501C121.288 247.756 121.245 245.878 120.384 244.333C119.523 242.788 117.683 241.7 115.969 242.135C115.163 242.339 114.466 242.843 113.846 243.396C109.53 247.248 108.336 253.465 107.912 259.234C107.83 260.349 107.768 261.527 108.03 262.624C108.405 264.197 108.692 264.812 110.106 263.961C112.528 262.501 114.802 260.51 116.641 258.37Z" fill="#334620"/>
<path d="M99.5421 267.76C96.7631 269.604 94.3541 272.091 92.9351 275.109C92.1831 276.709 91.7141 278.529 92.1221 280.25C92.5301 281.971 94.0051 283.518 95.7731 283.566C96.6041 283.589 97.4111 283.294 98.1581 282.93C103.359 280.397 106.199 274.739 108.176 269.303C108.558 268.252 108.938 267.136 108.985 266.008C109.052 264.392 108.943 263.722 107.351 264.157C104.623 264.903 101.894 266.2 99.5421 267.76Z" fill="#334620"/>
<path d="M72.7561 247.645C69.4231 247.767 66.0701 248.63 63.2841 250.464C61.8071 251.436 60.4571 252.743 59.9071 254.424C59.3571 256.105 59.8071 258.195 61.2891 259.159C61.9861 259.612 62.8281 259.782 63.6561 259.862C69.4141 260.417 74.7901 257.074 79.3151 253.47C80.1901 252.773 81.0961 252.019 81.7251 251.083C82.6251 249.74 82.8821 249.112 81.2971 248.651C78.5811 247.861 75.5761 247.542 72.7561 247.645Z" fill="#334620"/>
<path d="M148.422 288.363C146.505 291.093 145.167 294.286 144.945 297.614C144.828 299.379 145.053 301.244 146.06 302.698C147.067 304.152 149.004 305.056 150.668 304.457C151.45 304.176 152.095 303.607 152.658 302.996C156.579 298.743 157.164 292.439 157.025 286.656C156.998 285.538 156.945 284.36 156.578 283.293C156.052 281.764 155.706 281.18 154.382 282.164C152.114 283.852 150.044 286.053 148.422 288.363Z" fill="#334620"/>
<path d="M81.7381 240.969C81.5211 237.641 82.0381 234.217 83.5801 231.26C84.3971 229.692 85.5601 228.216 87.1771 227.498C88.7931 226.78 90.9181 227.015 92.0281 228.392C92.5491 229.039 92.8041 229.86 92.9671 230.675C94.1041 236.347 91.3241 242.035 88.1981 246.902C87.5941 247.843 86.9361 248.821 86.0671 249.542C84.8231 250.574 84.2231 250.894 83.6041 249.364C82.5441 246.742 81.9221 243.785 81.7381 240.969Z" fill="#334620"/>
<path d="M161.067 274.168C160.85 270.839 161.368 267.416 162.909 264.458C163.726 262.89 164.89 261.414 166.506 260.696C168.122 259.978 170.247 260.214 171.357 261.591C171.878 262.238 172.133 263.059 172.296 263.874C173.433 269.546 170.653 275.234 167.527 280.101C166.923 281.042 166.265 282.02 165.397 282.741C164.152 283.773 163.553 284.093 162.934 282.563C161.873 279.941 161.251 276.984 161.067 274.168Z" fill="#334620"/>
<path d="M77.0492 233.579C79.1522 230.99 80.7102 227.898 81.1642 224.594C81.4052 222.842 81.3092 220.965 80.4072 219.445C79.5042 217.924 77.6352 216.887 75.9332 217.368C75.1332 217.594 74.4512 218.116 73.8462 218.686C69.6372 222.654 68.6132 228.902 68.3472 234.68C68.2962 235.797 68.2662 236.976 68.5572 238.066C68.9752 239.628 69.2792 240.235 70.6692 239.346C73.0512 237.821 75.2702 235.77 77.0492 233.579Z" fill="#334620"/>
<path d="M147.832 271.47C149.641 269.242 150.982 266.582 151.373 263.739C151.58 262.231 151.498 260.617 150.721 259.308C149.944 257.999 148.336 257.107 146.872 257.521C146.184 257.715 145.596 258.165 145.076 258.655C141.455 262.07 140.574 267.445 140.345 272.417C140.301 273.378 140.275 274.392 140.526 275.33C140.885 276.674 141.147 277.196 142.343 276.431C144.392 275.12 146.301 273.355 147.832 271.47Z" fill="#334620"/>
<path d="M59.623 212.235C60.765 210.902 62.1 209.667 63.74 209.042C65.38 208.417 67.375 208.503 68.732 209.616C69.567 210.301 70.094 211.315 70.316 212.372C70.778 214.578 69.951 216.904 68.574 218.689C67.198 220.474 65.319 221.798 63.419 223.012C61.123 224.478 54.967 227.64 55.15 222.846C55.3 218.906 57.086 215.198 59.623 212.235Z" fill="#334620"/>
<path d="M125.235 256.628C126.376 255.295 127.712 254.06 129.352 253.435C130.992 252.81 132.987 252.896 134.344 254.009C135.179 254.694 135.706 255.708 135.928 256.765C136.39 258.971 135.563 261.297 134.186 263.082C132.81 264.867 130.931 266.191 129.031 267.405C126.735 268.871 120.579 272.033 120.763 267.239C120.913 263.299 122.698 259.591 125.235 256.628Z" fill="#334620"/>
<path d="M56.3051 245.805C54.5711 246.076 52.7541 246.146 51.1021 245.554C49.4491 244.963 47.9901 243.6 47.6821 241.872C47.4931 240.809 47.7521 239.696 48.2711 238.748C49.3551 236.772 51.4951 235.542 53.7021 235.081C55.9081 234.62 58.1961 234.835 60.4301 235.149C63.1281 235.528 69.8601 237.128 66.6041 240.652C63.9261 243.547 60.1591 245.204 56.3051 245.805Z" fill="#334620"/>
<path d="M172.508 298.071C172.085 299.774 171.445 301.476 170.259 302.77C169.073 304.064 167.251 304.881 165.539 304.494C164.486 304.256 163.56 303.586 162.888 302.74C161.487 300.975 161.183 298.525 161.614 296.313C162.045 294.101 163.13 292.075 164.286 290.138C165.681 287.798 169.767 282.213 171.752 286.581C173.383 290.17 173.448 294.285 172.508 298.071Z" fill="#334620"/>
<path d="M177.083 273.258C177.724 271.624 178.581 270.02 179.926 268.892C181.27 267.764 183.184 267.191 184.831 267.798C185.844 268.172 186.675 268.956 187.23 269.883C188.389 271.816 188.371 274.284 187.655 276.422C186.939 278.56 185.599 280.426 184.202 282.196C182.513 284.334 177.734 289.339 176.336 284.749C175.187 280.978 175.658 276.889 177.083 273.258Z" fill="#334620"/>
<path d="M94.6232 243.488C95.2162 241.836 96.0262 240.208 97.3372 239.041C98.6482 237.874 100.544 237.246 102.208 237.804C103.232 238.148 104.085 238.908 104.667 239.818C105.882 241.716 105.936 244.184 105.283 246.341C104.63 248.498 103.345 250.404 101.999 252.213C100.373 254.399 95.7422 259.542 94.2112 254.995C92.9522 251.259 93.3032 247.159 94.6232 243.488Z" fill="#334620"/>
<path d="M27.7141 208.506C26.1531 208.833 24.4821 209.541 23.8581 211.009C23.1421 212.694 24.1941 214.723 25.7601 215.672C27.3261 216.621 29.2481 216.734 31.0791 216.71C35.2141 216.656 39.3371 216.029 43.3181 214.912C43.9071 214.747 44.5221 214.555 44.9471 214.115C46.8941 212.104 39.4591 209.806 38.1351 209.37C34.7901 208.27 31.1941 207.778 27.7141 208.506Z" fill="#334620"/>
<path d="M82.0591 259.376C79.0991 260.565 76.2641 262.182 74.0371 264.466C71.8101 266.75 70.2251 269.75 70.0271 272.934C69.8901 275.143 70.5681 277.591 72.4281 278.791C74.4211 280.077 77.0691 279.542 79.2631 278.64C85.2221 276.19 89.9961 271.194 92.4741 265.278C93.2501 263.425 95.4621 257.778 93.5041 256.852C92.3211 256.292 89.0601 257.343 87.7761 257.622C85.8261 258.045 83.9111 258.633 82.0591 259.376Z" fill="#334620"/>
<path d="M91.3652 157.441L91.3002 157.359C91.3002 157.359 91.2952 157.388 91.2862 157.435C91.2392 157.431 91.2092 157.429 91.2092 157.429L91.2722 157.512C90.6342 161.162 78.5532 234.902 135.246 277.468C157.787 294.392 183.527 286.599 188.359 282.582C193.839 278.027 207.401 255.907 196.615 229.866C169.487 164.368 95.0592 157.731 91.3652 157.441Z" fill="#00393D"/>
<path d="M92.4561 159.791C125.138 201.82 156.158 240.14 187.943 282.85" stroke="white" stroke-width="1.0526" stroke-miterlimit="10" stroke-linecap="round" stroke-linejoin="round"/>
<path d="M91.9612 195.507C103.739 202.905 117.15 207.409 130.633 208.494" stroke="white" stroke-width="1.0526" stroke-miterlimit="10" stroke-linecap="round" stroke-linejoin="round"/>
<path d="M110.585 163.585C111.961 167.683 113.215 171.815 114.346 175.976C115.962 181.923 117.005 185.258 116.913 191.323" stroke="white" stroke-width="1.0526" stroke-miterlimit="10" stroke-linecap="round" stroke-linejoin="round"/>
<path d="M134.99 173.604C138.578 189.177 140.53 205.041 140.799 220.829" stroke="white" stroke-width="1.0526" stroke-miterlimit="10" stroke-linecap="round" stroke-linejoin="round"/>
<path d="M99.6453 224.132C115.358 232.421 134.031 236.336 151.156 235.04" stroke="white" stroke-width="1.0526" stroke-miterlimit="10" stroke-linecap="round" stroke-linejoin="round"/>
<path d="M156.179 183.282C159.787 203.804 163.395 224.9 159.452 244.884" stroke="white" stroke-width="1.0526" stroke-miterlimit="10" stroke-linecap="round" stroke-linejoin="round"/>
<path d="M111.069 249.514C128.643 256.91 148.122 258.828 166.088 254.931" stroke="white" stroke-width="1.0526" stroke-miterlimit="10" stroke-linecap="round" stroke-linejoin="round"/>
<path d="M178.825 202.64C184.192 225.705 186.677 249.978 180.332 272.046" stroke="white" stroke-width="1.0526" stroke-miterlimit="10" stroke-linecap="round" stroke-linejoin="round"/>
<path d="M139.765 276.701C153.607 280.79 168.535 279.903 181.226 274.237" stroke="white" stroke-width="1.0526" stroke-miterlimit="10" stroke-linecap="round" stroke-linejoin="round"/>
<path d="M142.185 303.18C142.083 303.272 141.982 303.364 141.88 303.456C141.868 303.475 141.855 303.495 141.843 303.514C141.955 303.4 142.071 303.291 142.185 303.18Z" stroke="white" stroke-miterlimit="10"/>
<path d="M45.6152 274.324C45.3262 277.158 48.1542 279.98 50.9712 281.436C35.4472 277.556 17.9692 282.117 6.50517 293.334C1.23217 298.494 -3.08783 306.476 2.90317 313.122C5.60317 316.116 13.4992 319.37 17.5102 319.779C29.8082 321.033 38.2842 319.136 48.2162 314.894C47.3222 315.796 46.5002 316.835 45.7722 318.041C44.0952 320.818 43.2442 324.339 44.5082 327.326C45.7022 330.147 48.5532 331.96 51.4882 332.836C56.4782 334.325 61.9342 333.558 66.7712 331.629C71.2472 329.843 75.2722 327.117 79.1492 324.243C78.9532 324.691 78.7742 325.148 78.6222 325.615C78.4482 326.149 78.3182 326.698 78.2092 327.252C77.5502 328.957 77.4152 330.746 78.1652 332.255C78.4292 333.68 78.9312 335.053 79.7102 336.281C81.9322 339.785 86.0672 341.766 90.2002 342.145C94.3322 342.524 98.4742 341.478 102.352 340.003C112.11 336.291 120.675 329.848 127.806 322.222C129.227 320.702 130.58 319.125 131.899 317.519C131.198 318.963 130.58 320.447 130.07 321.968C129.25 324.415 128.685 327.09 129.442 329.558C130.499 333.002 134.005 335.273 137.571 335.778C141.138 336.283 146.495 335.808 149.909 334.658C164.833 329.629 192.582 308.502 210.648 288.665C157.786 272.845 102.081 266.545 47.0222 270.196C46.2062 271.648 45.7412 273.088 45.6152 274.324ZM142.185 303.18C142.071 303.291 141.955 303.4 141.843 303.514C141.855 303.495 141.868 303.475 141.88 303.456C141.982 303.364 142.084 303.272 142.185 303.18Z" fill="#40304F"/>
<path d="M142.018 249.644C136.59 249.322 130.555 250.294 126.268 253.638C121.981 256.982 120.873 264.62 125.46 267.54C114.067 263.053 102.196 259.343 89.9662 258.74C77.7362 258.137 64.4912 258.57 53.5612 264.09C50.4042 265.684 48.2842 267.955 47.0232 270.196C102.082 266.544 157.786 272.845 210.649 288.665C211.62 287.599 212.571 286.535 213.482 285.479C215.169 283.524 215.033 280.645 212.807 279.335C200.147 271.886 161.601 250.805 142.018 249.644Z" fill="#534263"/>
<path d="M14.2812 300.239C79.9443 286.489 147.486 285.148 214.561 283.859" stroke="white" stroke-width="1.4468" stroke-miterlimit="10"/>
<path d="M59.4792 272.729C74.5502 273.224 89.4332 278.425 101.532 287.426" stroke="white" stroke-width="1.4468" stroke-miterlimit="10"/>
<path d="M85.2952 289.927C84.8772 289.523 84.2272 290.046 83.8922 290.522C76.5472 300.976 67.0792 309.931 56.2332 316.682" stroke="white" stroke-width="1.4468" stroke-miterlimit="10"/>
<path d="M131.157 286.443C120.983 300.682 107.972 312.886 93.1123 322.13" stroke="white" stroke-width="1.4468" stroke-miterlimit="10"/>
<path d="M134.437 260.523C143.249 262.778 152.103 265.046 160.46 268.637C168.817 272.227 176.727 277.225 182.582 284.186" stroke="white" stroke-width="1.4468" stroke-miterlimit="10"/>
<path d="M175.943 284.611C165.961 299.494 153.758 312.885 139.862 324.202" stroke="white" stroke-width="1.4468" stroke-miterlimit="10"/>
<path d="M77.3472 315.468C76.8262 316.891 75.4732 317.869 74.0442 318.376C72.8532 318.798 71.3982 318.904 70.4402 318.08C68.2942 316.235 70.1432 312.564 72.3932 311.791C74.9622 310.909 78.5592 312.157 77.3472 315.468Z" fill="#534263"/>
<path d="M47.9073 306.841C47.5983 307.685 46.7963 308.265 45.9493 308.565C45.2433 308.815 44.3813 308.878 43.8123 308.39C42.5403 307.296 43.6363 305.12 44.9703 304.662C46.4933 304.138 48.6253 304.878 47.9073 306.841Z" fill="#534263"/>
<path d="M26.9912 309.628C27.9032 310.616 28.1262 312.081 27.9462 313.414C27.7962 314.526 27.2902 315.716 26.2512 316.139C23.9252 317.085 21.7772 314.137 22.0802 312.048C22.4262 309.661 24.8692 307.328 26.9912 309.628Z" fill="#534263"/>
<path d="M40.5783 284.775C41.4083 285.675 41.6123 287.009 41.4483 288.223C41.3113 289.235 40.8513 290.319 39.9053 290.704C37.7873 291.566 35.8313 288.881 36.1063 286.979C36.4213 284.805 38.6463 282.681 40.5783 284.775Z" fill="#534263"/>
<path d="M106.918 325.85C107.538 326.522 107.69 327.518 107.568 328.423C107.466 329.178 107.122 329.988 106.416 330.275C104.835 330.918 103.375 328.914 103.581 327.494C103.815 325.873 105.476 324.287 106.918 325.85Z" fill="#534263"/>
<path d="M94.7013 307.912C94.6993 308.826 94.1333 309.659 93.4273 310.24C92.8393 310.725 92.0363 311.084 91.3233 310.815C89.7273 310.211 90.0193 307.749 91.1353 306.848C92.4113 305.819 94.7063 305.785 94.7013 307.912Z" fill="#534263"/>
<path d="M89.7082 329.505C90.4082 330.093 90.6843 331.062 90.6773 331.976C90.6713 332.738 90.4323 333.585 89.7683 333.958C88.2803 334.795 86.5803 332.991 86.6053 331.557C86.6333 329.919 88.0802 328.136 89.7082 329.505Z" fill="#534263"/>
<path d="M208.983 78.6381H132.406V338H208.983V78.6381Z" fill="#000205"/>
<path d="M208.983 146.686H132.406V207.811H208.983V146.686Z" fill="#40552A"/>
<path d="M132.405 135.813H208.982V119.223L132.405 119.223V135.813Z" fill="#40552A"/>
<path opacity="0.41" d="M182.307 74H132V333.362H182.307V74Z" fill="#334620"/>
<path d="M132.406 116.118H81.375V341.116H132.406V116.118Z" fill="#096E8A"/>
<path d="M132.405 158.439H81.374V196.455H132.405V158.439Z" fill="#031115"/>
<path d="M81.375 151.677H132.406V141.359H81.375V151.677Z" fill="#041C23"/>
<path opacity="0.12" d="M114.9 116.118H81.375V341.116H114.9V116.118Z" fill="#096E8A"/>
<path d="M324.281 340.985H428.971C445.463 340.985 458.833 327.615 458.833 311.123C458.833 294.63 445.463 281.261 428.971 281.261H324.281V340.985Z" fill="black"/>
<path d="M324.281 340.985H428.971C445.463 340.985 458.833 327.615 458.833 311.123C458.833 294.63 445.463 281.261 428.971 281.261H324.281V340.985Z" fill="#096E8A"/>
<path d="M326.082 336.082H194.974V288.665H326.081C338.508 288.665 348.581 298.739 348.581 311.166V313.583C348.582 326.008 338.509 336.082 326.082 336.082Z" fill="#F9F3E9"/>
<path d="M326.082 288.665C338.492 288.665 348.555 298.713 348.581 311.118C346.426 300.964 337.412 293.345 326.616 293.345H194.974V288.665H326.082Z" fill="#D6C7B4"/>
<path opacity="0.35" d="M406.33 311.123C406.33 294.63 392.96 281.261 376.468 281.261H396.211C412.704 281.261 426.073 294.631 426.073 311.123C426.073 327.615 412.703 340.985 396.211 340.985H376.468C392.96 340.985 406.33 327.615 406.33 311.123Z" fill="#590A06"/>
<path d="M194.974 299.891H342.456" stroke="#D3CABE" stroke-width="0.8328" stroke-miterlimit="10"/>
<path d="M194.974 308.907H345.846" stroke="#D3CABE" stroke-width="0.8328" stroke-miterlimit="10"/>
<path d="M194.974 317.923H345.846" stroke="#D3CABE" stroke-width="0.8328" stroke-miterlimit="10"/>
<path d="M194.974 326.94H342.456" stroke="#D3CABE" stroke-width="0.8328" stroke-miterlimit="10"/>
<path d="M321.936 333.58C334.339 333.58 344.394 323.525 344.394 311.122C344.394 298.719 334.339 288.664 321.936 288.664H190.072V281.26H322.557C339.049 281.26 352.419 294.63 352.419 311.122C352.419 327.614 339.049 340.984 322.557 340.984H190.072V333.579H321.936V333.58Z" fill="#032B37"/>
<path opacity="0.2" d="M369.914 281.26H428.97C445.462 281.26 458.832 294.63 458.832 311.122C458.832 327.614 445.462 340.984 428.97 340.984C428.971 285.5 369.914 281.26 369.914 281.26Z" fill="#560410"/>
<path opacity="0.16" d="M238.299 281.26H322.556C323.135 281.26 323.709 281.28 324.281 281.313V281.26H369.914H376.468H396.211H428.971C445.463 281.26 458.833 294.63 458.833 311.122C458.833 327.614 445.463 340.984 428.971 340.984H396.214H396.211H376.468H376.47H324.281V340.931C323.71 340.963 323.136 340.984 322.556 340.984L227.295 282.257L238.299 281.26Z" fill="#999999"/>
<path d="M299.642 223.84H404.332C420.824 223.84 434.194 210.47 434.194 193.978C434.194 177.485 420.824 164.116 404.332 164.116H299.642V223.84Z" fill="black"/>
<path d="M299.642 223.84H404.332C420.824 223.84 434.194 210.47 434.194 193.978C434.194 177.485 420.824 164.116 404.332 164.116H299.642V223.84Z" fill="#534263"/>
<path d="M301.443 218.937H170.336V171.52H301.443C313.87 171.52 323.943 181.594 323.943 194.02V196.437C323.944 208.863 313.87 218.937 301.443 218.937Z" fill="#F9F3E9"/>
<path d="M301.443 171.52C313.853 171.52 323.916 181.568 323.942 193.973C321.786 183.819 312.773 176.2 301.977 176.2H170.336V171.52H301.443Z" fill="#D6C7B4"/>
<path d="M381.692 193.978C381.692 177.485 368.322 164.116 351.83 164.116H371.573C388.066 164.116 401.436 177.486 401.436 193.978C401.436 210.47 388.066 223.84 371.573 223.84H351.83C368.322 223.84 381.692 210.47 381.692 193.978Z" fill="#40304F"/>
<path d="M170.336 182.746H317.818" stroke="#D3CABE" stroke-width="0.8328" stroke-miterlimit="10"/>
<path d="M170.336 191.762H321.208" stroke="#D3CABE" stroke-width="0.8328" stroke-miterlimit="10"/>
<path d="M170.336 200.778H321.208" stroke="#D3CABE" stroke-width="0.8328" stroke-miterlimit="10"/>
<path d="M170.336 209.795H317.818" stroke="#D3CABE" stroke-width="0.8328" stroke-miterlimit="10"/>
<path d="M297.298 216.436C309.701 216.436 319.756 206.381 319.756 193.978C319.756 181.575 309.701 171.52 297.298 171.52H165.433V164.116H297.918C314.41 164.116 327.78 177.486 327.78 193.978C327.78 210.47 314.41 223.84 297.918 223.84H165.433V216.435H297.298V216.436Z" fill="#40304F"/>
<path opacity="0.2" d="M345.276 164.115H404.332C420.824 164.115 434.194 177.485 434.194 193.977C434.194 210.469 420.824 223.839 404.332 223.839C404.332 168.355 345.276 164.115 345.276 164.115Z" fill="#560410"/>
<path opacity="0.16" d="M213.661 164.115H297.918C298.497 164.115 299.071 164.135 299.643 164.168V164.115H345.276H351.83H371.573H404.333C420.825 164.115 434.195 177.485 434.195 193.977C434.195 210.469 420.825 223.839 404.333 223.839H371.576H371.573H351.83H351.832H299.642V223.786C299.071 223.819 298.497 223.839 297.917 223.839L202.656 165.112L213.661 164.115Z" fill="#086D8A"/>
<path d="M291.469 281.919H189.299C173.204 281.919 160.156 268.871 160.156 252.776C160.156 236.681 173.204 223.633 189.299 223.633H291.468V281.919H291.469Z" fill="black"/>
<path d="M291.469 281.919H189.299C173.204 281.919 160.156 268.871 160.156 252.776C160.156 236.681 173.204 223.633 189.299 223.633H291.468V281.919H291.469Z" fill="#00393D"/>
<path d="M289.711 277.134H417.662V230.859H289.711C277.584 230.859 267.752 240.69 267.752 252.818V255.176C267.752 267.303 277.584 277.134 289.711 277.134Z" fill="#F9F3E9"/>
<path d="M289.711 230.859C277.599 230.859 267.779 240.665 267.753 252.771C269.857 242.862 278.653 235.426 289.189 235.426H417.661V230.859H289.711Z" fill="#D6C7B4"/>
<path d="M198.607 252.776C198.607 236.681 211.655 223.633 227.75 223.633H208.482C192.387 223.633 179.339 236.681 179.339 252.776C179.339 268.871 192.387 281.92 208.482 281.92H227.75C211.655 281.919 198.607 268.871 198.607 252.776Z" fill="#79AEBD"/>
<path d="M417.662 241.815H273.731" stroke="#D3CABE" stroke-width="1.1847" stroke-miterlimit="10"/>
<path d="M417.662 250.614H270.423" stroke="#D3CABE" stroke-width="1.1847" stroke-miterlimit="10"/>
<path d="M417.662 259.413H270.423" stroke="#D3CABE" stroke-width="1.1847" stroke-miterlimit="10"/>
<path d="M417.662 268.212H273.731" stroke="#D3CABE" stroke-width="1.1847" stroke-miterlimit="10"/>
<path d="M293.757 274.693C281.653 274.693 271.84 264.88 271.84 252.776C271.84 240.671 281.653 230.859 293.757 230.859H422.447V223.633H293.152C277.057 223.633 264.009 236.681 264.009 252.776C264.009 268.871 277.057 281.92 293.152 281.92H422.447V274.694L293.757 274.693Z" fill="#79AEBD"/>
<path opacity="0.2" d="M246.934 223.632H189.3C173.204 223.632 160.157 236.68 160.157 252.775C160.157 268.87 173.205 281.918 189.3 281.918C189.3 227.77 246.934 223.632 246.934 223.632Z" fill="#FEFEFE"/>
<path opacity="0.16" d="M422.447 223.632V230.859H417.662V235.426V274.693H422.447V281.919H403.049L306.816 223.632H422.447Z" fill="#999999"/>
<path d="M395.696 241.453H381.918V268.145H395.696V241.453Z" fill="#68814B"/>
<path d="M173.204 324.583C173.204 324.583 174.216 334.133 173.71 340.56C120.864 340.56 120.864 340.56 120.864 340.56C120.864 340.56 123.986 323.481 145.84 323.481C167.695 323.48 173.204 324.583 173.204 324.583Z" fill="#00393D"/>
<path opacity="0.5" d="M120.864 340.56C120.864 340.56 123.534 326.031 141.111 323.782C144.567 326.118 150.114 331.256 151.203 340.56C120.869 340.56 120.864 340.56 120.864 340.56Z" fill="#00393D"/>
<path d="M144.187 323.48C144.187 323.48 150.431 326.72 152.451 332.17" stroke="#FFF6E7" stroke-width="1.0148" stroke-miterlimit="10"/>
<path d="M173.71 107.509C173.71 107.509 155.757 121.099 150.431 123.67C145.105 126.241 127.291 95.8198 127.291 95.8198L141.615 92.2658L151.899 103.652L169.346 88.2258L173.71 107.509Z" fill="#E6C1A6"/>
<path d="M117.567 54.8049L121.782 52.2769L130.597 63.0659C130.597 63.0659 131.332 64.5349 134.27 63.6169C158.512 53.8839 158.512 53.8839 158.512 53.8839L161.996 56.4389L146.942 70.5959L132.25 73.3509L123.986 63.8009L117.567 54.8049Z" fill="#E2D4BF"/>
<path d="M128.945 65.4539L116.089 53.4219L124.353 100.714L136.658 113.937L128.945 65.4539Z" fill="#334620"/>
<path d="M184.407 60.9849C184.407 60.9849 179.448 63.8009 174.857 68.3919C170.266 72.9829 154.288 87.3079 154.288 87.3079C154.288 87.3079 167.878 101.633 172.653 112.101C183.488 98.5109 183.488 98.5109 183.488 98.5109L184.407 60.9849Z" fill="#004953"/>
<path d="M174.122 318.828L173.204 324.582L145.84 323.48L147.493 318.889C147.493 318.889 169.531 315.094 174.122 318.828Z" fill="#2C4556"/>
<path d="M172.041 149.136C172.041 149.136 171.306 153.521 167.144 155.736C162.981 157.951 111.07 210.597 109.111 219.902C107.152 229.207 131.394 258.101 157.839 273.772C171.551 252.958 171.551 252.958 171.551 252.958L153.676 226.513L172.041 209.617L188.937 167.01V148.155L172.041 149.136Z" fill="#233847"/>
<path d="M153.676 226.514L148.968 219.168" stroke="#093F51" stroke-width="0.2726" stroke-miterlimit="10"/>
<path d="M173.71 191.078C173.71 191.078 144.86 216.634 143.146 221.207C141.432 225.779 154.752 246.794 154.752 246.794" stroke="#093F51" stroke-width="0.476" stroke-miterlimit="10"/>
<g opacity="0.52">
<path d="M157.839 273.773C149.255 268.686 140.911 262.205 133.612 255.454C139.98 249.25 151.148 237.884 156.022 229.983L171.552 252.959C171.552 252.959 171.551 252.959 157.839 273.773Z" fill="#40552A"/>
<path d="M178.395 193.594L172.041 209.618L159.982 220.712C168.86 197.483 174.715 188.201 174.715 188.201L178.395 193.594Z" fill="#40552A"/>
</g>
<path d="M233.257 153.753C233.257 153.753 225.421 184.152 218.32 198.599C211.219 213.046 173.842 333.441 173.842 333.441L131.509 326.647C131.509 326.647 150.738 256.877 159.798 230.922C168.858 204.966 175.959 184.642 175.959 184.642C175.959 184.642 172.825 171.229 181.126 152.47C204.853 143.749 233.257 153.753 233.257 153.753Z" fill="#2C4556"/>
<path d="M173.842 333.441L131.509 326.647C131.509 326.647 135.504 312.52 137.893 303.128L181.085 310.594C178.094 320.117 173.842 333.441 173.842 333.441Z" fill="#233847"/>
<path d="M175.959 184.642C175.959 184.642 172.825 171.229 181.126 152.47C183.323 151.663 185.56 151.017 187.811 150.508C184.128 159.163 175.959 184.642 175.959 184.642Z" fill="#233847"/>
<path d="M215.082 55.0429C221.481 58.6209 237.852 68.0379 240.358 74.2079C243.541 82.0439 234.971 145.638 233.257 153.754C208.526 158.197 181.835 154.524 172.041 149.137C176.938 91.1039 182.57 64.6579 184.407 60.9849C200.445 55.1079 213.354 54.0759 215.082 55.0429Z" fill="#096E8A"/>
<path d="M234.176 93.5519C234.176 93.5519 227.625 139.306 224.473 154.995" stroke="#096E8A" stroke-width="0.7611" stroke-miterlimit="10"/>
<path d="M203.625 155.588C203.625 155.588 204.364 168.236 217.586 175.337C219.545 168.726 219.545 168.726 219.545 168.726C219.545 168.726 211.705 165.765 211.585 155.737C207.052 155.703 203.625 155.588 203.625 155.588Z" fill="#233847"/>
<path d="M222.789 155.161C222.789 155.161 219.091 172.889 214.053 184.642C209.015 196.396 188.936 247.59 188.936 247.59L166.282 332.191" stroke="#093F51" stroke-width="0.476" stroke-miterlimit="10"/>
<path d="M175.959 184.642L161.512 177.786" stroke="#093F51" stroke-width="0.476" stroke-miterlimit="10"/>
<path d="M163.914 185.621L175.959 184.642" stroke="#093F51" stroke-width="0.476" stroke-miterlimit="10"/>
<path d="M114.069 79.2268C114.069 79.2268 117.191 70.5948 119.946 68.3918C122.701 66.1878 123.619 68.2328 122.517 70.1488C121.415 72.0648 120.497 74.6358 120.497 74.6358C120.497 74.6358 123.435 72.6158 125.272 72.2488C127.109 71.8818 127.292 74.2688 125.823 75.9218C126.558 78.3098 125.272 80.6968 124.721 81.2478C125.823 83.0838 123.803 85.1588 123.435 86.8758C123.068 88.5938 123.802 95.8208 123.802 95.8208C123.802 95.8208 111.865 92.4498 114.069 79.2268Z" fill="#E6C1A6"/>
<path d="M125.823 75.9219L120.68 79.9619" stroke="#703620" stroke-width="0.5074" stroke-miterlimit="10"/>
<path d="M202.221 97.2248C202.221 97.2248 206.343 113.568 220.953 118.712C217.636 104.238 209.637 96.5538 202.221 97.2248Z" fill="#004953"/>
<path d="M124.721 81.2479L121.599 84.1859" stroke="#703620" stroke-width="0.5074" stroke-miterlimit="10"/>
<path d="M128.945 65.4539L136.658 113.937C136.658 113.937 140.331 114.855 142.168 113.202C135.74 65.6369 135.74 65.6369 135.74 65.6369C135.74 65.6369 130.597 68.2079 128.945 65.4539Z" fill="#40552A"/>
<path d="M135.74 65.6369L164.573 55.5369L172.041 103.653L142.167 113.202L135.74 65.6369Z" fill="#5A733E"/>
<path d="M222.789 113.386C222.789 113.386 203.139 135.607 198.547 138.913C193.956 142.219 183.262 144.602 178.713 135.424C174.164 126.246 164.756 103.285 164.756 103.285C164.756 103.285 153.921 100.239 151.717 94.4159C148.411 91.8989 149.146 89.9299 151.166 91.0059C153.186 92.0819 158.512 92.6329 158.512 92.6329C158.512 92.6329 151.166 88.4089 150.431 86.7559C149.696 85.1029 151.349 85.1029 152.818 85.4699C154.287 85.8369 161.633 87.8569 161.633 87.8569C161.633 87.8569 158.327 83.6329 158.144 81.7959C157.96 79.9599 160.164 81.0619 161.45 81.7959C162.736 82.5309 172.102 88.4069 174.673 90.6109C177.244 92.8149 190.222 113.384 191.263 115.036C206.445 97.5889 206.445 97.5889 206.445 97.5889C206.445 97.5889 220.586 104.387 222.789 113.386Z" fill="#F2D2BA"/>
<path d="M191.263 115.039L196.15 122.569" stroke="#703620" stroke-width="0.5074" stroke-miterlimit="10"/>
<path d="M151.717 94.4159L156.859 97.2249" stroke="#703620" stroke-width="0.5074" stroke-miterlimit="10"/>
<path d="M240.899 87.4879C240.899 87.4879 231.421 109.713 220.953 118.712C214.709 101.633 202.221 97.2249 202.221 97.2249C202.221 97.2249 211.771 81.2479 221.137 74.0849C230.503 66.9229 244.132 68.3849 240.899 87.4879Z" fill="#0C8FB4"/>
<path d="M202.221 97.2248C202.221 97.2248 203.789 94.6018 206.276 91.0068C211.818 94.1448 222.055 101.366 225.887 113.495C224.291 115.477 222.636 117.267 220.954 118.713C214.709 101.633 202.221 97.2248 202.221 97.2248Z" fill="white"/>
<path d="M206.275 91.0069C206.275 91.0069 215.691 73.4039 227.936 70.6459C237.399 68.5309 240.54 76.4739 240.54 76.4739" stroke="#096E8A" stroke-width="0.7611" stroke-miterlimit="10"/>
<path d="M225.886 113.494C225.886 113.494 236.733 99.7478 240.541 88.3038" stroke="#096E8A" stroke-width="0.7611" stroke-miterlimit="10"/>
<path d="M234.121 148.738C233.759 151.058 233.46 152.796 233.258 153.754C208.527 158.197 181.836 154.524 172.042 149.137C172.18 147.504 172.318 145.905 172.457 144.323C182.173 147.622 203.2 152.626 234.121 148.738Z" fill="white"/>
<path d="M169.347 86.8169L164.573 55.5369L135.74 65.6369" stroke="#334620" stroke-width="1.0148" stroke-miterlimit="10"/>
<path d="M215.082 55.0428L218.627 57.0218C205.96 63.7778 196.703 57.2008 196.703 57.2008C197.336 56.9198 198.902 56.5868 200.31 56.0588C202.104 57.2558 209.663 58.6318 215.082 55.0428Z" fill="#F5F5FD"/>
<path d="M200.309 56.0589C200.178 53.9479 199.661 51.7169 198.539 49.6169L213.935 48.6289L215.697 55.3899C210.455 58.3169 202.356 57.4589 200.309 56.0589Z" fill="#F2D2BA"/>
<path d="M215.305 53.8929C214.566 50.7029 213.84 47.9269 213.84 47.9269L198.31 48.8849C199.055 50.4389 199.741 52.2339 200.034 53.9749C202.289 55.2959 207.79 56.4049 215.305 53.8929Z" fill="#DB8480"/>
<path d="M189.369 33.6978C192.282 35.8908 193.173 39.6978 191.358 42.2018C189.543 44.7058 185.71 44.9568 182.797 42.7638C179.884 40.5708 178.993 36.7628 180.808 34.2598C182.622 31.7568 186.455 31.5048 189.369 33.6978Z" fill="#F2D2BA"/>
<path d="M189.299 36.0618C191.475 37.6998 192.14 40.5438 190.784 42.4138C189.428 44.2838 186.565 44.4718 184.389 42.8338C182.213 41.1958 181.548 38.3518 182.904 36.4818C184.26 34.6118 187.123 34.4238 189.299 36.0618Z" fill="#DB8480"/>
<path d="M217.269 29.1258C215.208 32.1338 215.58 36.0268 218.099 37.8198C220.618 39.6128 224.331 38.6278 226.392 35.6198C228.453 32.6118 228.081 28.7188 225.562 26.9258C223.042 25.1318 219.33 26.1168 217.269 29.1258Z" fill="#F2D2BA"/>
<path d="M218.09 31.3439C216.551 33.5909 216.828 36.4979 218.71 37.8379C220.592 39.1769 223.365 38.4418 224.904 36.1948C226.443 33.9478 226.166 31.0408 224.284 29.7008C222.402 28.3618 219.629 29.0969 218.09 31.3439Z" fill="#DB8480"/>
<path d="M200.14 12.0159C200.14 12.0159 184.898 15.2999 183.319 23.4609L185.799 33.6199L190.291 44.5409C190.291 44.5409 191.809 48.3089 195.993 50.5489C200.177 52.7889 202.78 54.8069 207.04 54.1089C211.3 53.4109 213.123 50.6669 216.372 47.2089C219.622 43.7509 219.858 39.6959 219.858 39.6959L220.628 27.9119L219.735 17.4929C215.633 10.2619 200.14 12.0159 200.14 12.0159Z" fill="#F2D2BA"/>
<path d="M200.14 12.0159C200.14 12.0159 200.13 12.0179 200.114 12.0219C200.106 12.0239 200.102 12.0249 200.088 12.0279C200.062 12.0339 200.03 12.0409 199.985 12.0519C199.97 12.0559 199.952 12.0599 199.935 12.0639C199.899 12.0719 199.859 12.0819 199.815 12.0929C199.789 12.0989 199.766 12.1049 199.738 12.1119C199.676 12.1269 199.608 12.1439 199.533 12.1629C199.495 12.1719 199.456 12.1829 199.415 12.1929C199.358 12.2069 199.298 12.2229 199.236 12.2389C199.174 12.2549 199.111 12.2719 199.044 12.2889C198.972 12.3079 198.898 12.3279 198.82 12.3489C198.763 12.3649 198.706 12.3799 198.645 12.3969C198.556 12.4209 198.464 12.4469 198.369 12.4739C198.286 12.4979 198.201 12.5219 198.113 12.5479C198.039 12.5689 197.963 12.5919 197.886 12.6139C197.81 12.6359 197.736 12.6579 197.657 12.6819C197.532 12.7199 197.403 12.7589 197.271 12.7999C197.186 12.8259 197.099 12.8539 197.011 12.8819C196.93 12.9079 196.847 12.9349 196.763 12.9619C196.63 13.0049 196.495 13.0499 196.357 13.0959C196.261 13.1279 196.164 13.1609 196.065 13.1939C195.968 13.2269 195.87 13.2609 195.771 13.2959C195.67 13.3309 195.567 13.3679 195.464 13.4049C195.317 13.4579 195.169 13.5119 195.018 13.5679C194.923 13.6029 194.828 13.6389 194.733 13.6749C194.628 13.7149 194.524 13.7539 194.418 13.7949C194.256 13.8579 194.093 13.9219 193.929 13.9889C193.826 14.0309 193.722 14.0739 193.617 14.1169C193.512 14.1599 193.407 14.2039 193.301 14.2489C193.157 14.3099 193.012 14.3729 192.867 14.4369C192.739 14.4929 192.61 14.5499 192.481 14.6089C192.376 14.6569 192.272 14.7049 192.167 14.7539C192.038 14.8139 191.909 14.8759 191.78 14.9379C191.642 15.0039 191.504 15.0719 191.366 15.1409C191.244 15.2019 191.122 15.2639 191 15.3259C190.902 15.3759 190.805 15.4259 190.708 15.4779C190.528 15.5729 190.349 15.6699 190.171 15.7699C190.081 15.8199 189.992 15.8719 189.902 15.9229C189.773 15.9969 189.645 16.0719 189.517 16.1489C189.435 16.1979 189.354 16.2449 189.273 16.2949C186.39 18.0629 183.908 20.4249 183.32 23.4629L185.8 33.6219L189.119 41.6919L187.857 32.3419C187.857 32.3419 197.587 30.3139 201.51 25.8239C201.51 25.8239 208.445 28.1299 216.872 21.2929L218.331 23.2039L218.821 28.9239L218.051 40.7069C218.051 40.7069 217.815 44.7619 214.565 48.2199C212.573 50.3389 211.116 52.1879 209.306 53.4639C212.073 52.2969 213.765 49.9849 216.373 47.2099C219.623 43.7519 219.859 39.6969 219.859 39.6969L220.629 27.9129L219.736 17.4939C215.633 10.2619 200.14 12.0159 200.14 12.0159Z" fill="#F7AE9E"/>
<path d="M212.733 25.2309C210.227 24.8029 207.971 26.0689 207.971 26.0689C208.094 25.6209 208.612 25.2129 208.612 25.2129C207.654 25.5839 207.332 26.8409 207.332 26.8409C207.309 26.3499 207.407 26.0629 207.407 26.0629C206.959 26.7879 207.233 27.8609 207.233 27.8609C207.552 29.2099 211.203 26.5599 213.977 27.1049C216.034 27.5089 217.288 29.0769 217.834 28.9429C218.182 28.8579 215.238 25.6589 212.733 25.2309Z" fill="#611630"/>
<path d="M198.056 28.3619C198.056 28.3619 197.349 27.2729 196.323 27.2269C196.323 27.2269 196.944 27.4479 197.204 27.8329C197.204 27.8329 194.662 27.3539 192.424 28.5589C190.186 29.7639 188.417 33.7359 188.774 33.7059C189.334 33.6589 190.022 31.7719 191.842 30.7329C194.297 29.3309 198.604 30.6769 198.475 29.2969C198.475 29.2969 198.392 28.1929 197.736 27.6489C197.736 27.6489 197.921 27.8889 198.056 28.3619Z" fill="#611630"/>
<path d="M198.159 41.3699C198.312 42.3019 197.036 43.2879 195.309 43.5709C193.582 43.8539 192.058 43.3279 191.905 42.3949C191.752 41.4629 193.028 40.4769 194.755 40.1939C196.483 39.9109 198.007 40.4369 198.159 41.3699Z" fill="#E9A891"/>
<path d="M217.64 38.1769C217.793 39.1099 216.517 40.0949 214.79 40.3779C213.063 40.6609 211.539 40.1349 211.386 39.2019C211.233 38.2699 212.509 37.2839 214.236 37.0009C215.964 36.7179 217.487 37.2449 217.64 38.1769Z" fill="#E9A891"/>
<path d="M207.351 40.3589C207.351 40.3589 207.454 40.5189 207.535 40.7399C206.016 40.3589 204.826 40.6079 204.826 40.6079C204.826 40.6079 203.619 40.7519 202.301 41.5979C202.307 41.3629 202.354 41.1779 202.354 41.1779C202.354 41.1779 201.737 42.0109 202.501 42.5629C203.167 43.0439 203.754 42.7559 203.754 42.7559C203.754 42.7559 203.505 42.8569 202.845 42.5769C202.845 42.5669 202.85 42.2359 203.795 42.4599V42.4569C204.134 42.5829 204.568 42.6709 205.148 42.5759C205.732 42.4799 206.115 42.2569 206.397 42.0279L206.398 42.0329C207.201 41.5329 207.325 41.8149 207.334 41.8379C206.796 42.3179 206.526 42.3009 206.526 42.3009C206.526 42.3009 207.174 42.3859 207.652 41.7179C208.201 40.9519 207.351 40.3589 207.351 40.3589Z" fill="#E6998C"/>
<path d="M195.312 35.758C193.684 36.025 192.747 37.766 192.708 37.84C192.657 37.937 192.693 38.058 192.789 38.111C192.885 38.163 193.004 38.128 193.055 38.03C193.064 38.014 193.938 36.387 195.377 36.152C196.215 36.015 197.091 36.375 197.984 37.223C198.03 37.267 198.092 37.284 198.15 37.275C198.191 37.268 198.231 37.248 198.261 37.215C198.335 37.134 198.33 37.008 198.251 36.932C197.265 35.995 196.276 35.6 195.312 35.758Z" fill="#190A03"/>
<path d="M215.426 34.117C215.365 34.059 213.921 32.708 212.293 32.975C211.329 33.133 210.518 33.823 209.883 35.026C209.832 35.123 209.868 35.244 209.964 35.297C210.004 35.319 210.048 35.325 210.089 35.319C210.147 35.309 210.2 35.274 210.23 35.217C210.804 34.13 211.52 33.509 212.357 33.371H212.359C213.794 33.136 215.146 34.397 215.16 34.41C215.239 34.485 215.364 34.481 215.438 34.401C215.51 34.319 215.505 34.193 215.426 34.117Z" fill="#190A03"/>
<path d="M203.354 47.1379L208.697 46.4709C208.697 46.4709 205.916 50.0869 203.354 47.1379Z" fill="#004953"/>
<path d="M217.5 19.0159C217.5 19.0159 205.613 28.2439 201.021 25.0639C201.021 25.0639 193.36 31.0469 186.89 31.4969L189.118 41.6889L184.53 32.4989C184.53 32.4989 181.452 33.0319 180.808 34.2589C180.808 34.2589 174.721 23.0809 178.28 16.0449C178.28 16.0449 178.138 4.32688 192.663 1.25888C207.189 -1.80912 218.95 0.251873 222.906 12.7999C226.862 25.3489 224.831 26.4959 224.831 26.4959C224.831 26.4959 222.896 25.7749 221.7 26.1249L219.903 36.4139L219.329 24.4399C219.328 24.4419 217.11 22.7429 217.5 19.0159Z" fill="#611630"/>
<path d="M256.872 129.046C260.289 136.517 264.908 149.565 263.364 149.83C261.82 150.095 254.699 137.477 251.281 130.007C247.864 122.536 249.085 122.255 250.629 121.99C252.173 121.724 253.455 121.575 256.872 129.046Z" fill="#999999"/>
<path d="M251.455 122.355C249.092 123.024 250.964 126.462 256.087 136.828" stroke="#6B6B6B" stroke-width="0.8504" stroke-miterlimit="10"/>
<path d="M277.29 135.813H252.272V164.232H277.29V135.813Z" fill="white"/>
<path d="M248.144 160.524C242.864 160.524 238.883 155.853 238.883 149.658C238.883 143.463 242.864 138.792 248.144 138.792C253.554 138.792 257.956 143.666 257.956 149.658C257.956 155.649 253.554 160.524 248.144 160.524ZM248.144 142.388C244.861 142.388 242.479 145.446 242.479 149.658C242.479 153.871 244.862 156.928 248.144 156.928C251.572 156.928 254.36 153.666 254.36 149.658C254.36 145.649 251.572 142.388 248.144 142.388Z" fill="white"/>
<path d="M252.237 138.809V161.155" stroke="#999999" stroke-width="0.8504" stroke-miterlimit="10"/>
</svg>
